<?xml version="1.0" standalone="no"?>
<!DOCTYPE svg PUBLIC "-//W3C//DTD SVG 20010904//EN"
 "http://www.w3.org/TR/2001/REC-SVG-20010904/DTD/svg10.dtd">
<svg version="1.0" xmlns="http://www.w3.org/2000/svg"
 width="1667.000000pt" height="1667.000000pt" viewBox="0 0 1667.000000 1667.000000"
 preserveAspectRatio="xMidYMid meet">
<metadata>
Created by potrace 1.14, written by Peter Selinger 2001-2017
</metadata>
<g transform="translate(0.000000,1667.000000) scale(0.100000,-0.100000)"
fill="#000000" stroke="none">
<path d="M16 12011 c-6 -10 -3 -1319 8 -3683 1 -323 5 -591 9 -595 4 -3 7 2 8
13 0 17 0 158 -1 194 0 8 2 434 5 945 3 512 7 1412 9 2000 3 589 5 1075 5
1081 1 8 294 12 1079 13 592 1 1403 4 1802 6 399 2 873 4 1054 5 180 1 325 4
322 8 -8 7 -257 9 -2547 18 -1293 5 -1748 3 -1753 -5z"/>
<path d="M4330 12001 c0 -4 16 -8 36 -9 20 -1 35 1 32 4 -9 8 -68 13 -68 5z"/>
<path d="M4410 12001 c0 -9 38 -12 44 -3 2 4 -7 8 -20 8 -13 1 -24 -1 -24 -5z"/>
<path d="M4470 12000 c0 -5 10 -10 23 -10 18 0 19 2 7 10 -19 13 -30 13 -30 0z"/>
<path d="M4550 12002 c0 -4 10 -9 22 -9 18 -2 20 0 8 7 -18 12 -30 13 -30 2z"/>
<path d="M270 8205 c0 -2821 3 -3535 13 -3536 6 0 3052 -2 6767 -4 3715 -2
7396 -5 8180 -7 l1425 -3 -2 1240 c-3 2079 -8 3055 -16 3055 -4 0 -7 -12 -6
-27 0 -16 -2 -516 -6 -1113 -4 -597 -8 -1539 -10 -2095 -2 -555 -4 -1013 -4
-1017 -1 -4 -18 -6 -38 -5 l-38 2 -3 3523 -2 3522 -8130 0 -8130 0 0 -3535z
m16100 -1 l0 -3374 -7970 0 -7970 0 0 3373 0 3374 7970 0 7970 1 0 -3374z"/>
<path d="M14520 11170 c-24 -3 -36 -11 -38 -24 -4 -18 -3 -19 13 -3 9 9 25 17
36 17 17 0 19 -8 19 -84 0 -72 -3 -85 -17 -89 -10 -3 -1 -5 20 -6 27 -1 36 2
31 11 -4 7 -8 45 -8 86 -1 80 9 96 46 73 22 -13 38 -7 22 9 -12 12 -77 17
-124 10z"/>
<path d="M14336 11163 c-6 -7 -288 -17 -756 -28 -118 -3 -228 -7 -245 -10 -16
-3 -165 -7 -330 -10 -285 -4 -455 -10 -555 -20 -25 -2 -169 -7 -320 -10 -378
-9 -437 -12 -449 -19 -6 -4 -11 -2 -11 4 0 6 -5 8 -11 4 -6 -3 -93 -8 -194 -9
-152 -3 -188 -6 -209 -20 -14 -10 -26 -14 -26 -10 0 4 -10 1 -22 -7 -13 -7
-50 -22 -83 -33 -33 -10 -66 -23 -73 -29 -8 -5 -22 -11 -32 -13 -10 -1 -44
-14 -76 -28 -31 -14 -61 -25 -66 -25 -9 0 -22 -5 -103 -40 -16 -7 -38 -15 -48
-17 -10 -2 -28 -8 -40 -15 -12 -7 -26 -13 -32 -14 -5 -1 -27 -9 -47 -18 -21
-9 -38 -13 -38 -9 0 5 -4 3 -8 -3 -4 -5 -29 -18 -57 -28 -64 -23 -272 -104
-305 -119 -14 -6 -32 -11 -40 -11 -8 0 -21 -6 -28 -13 -7 -7 -20 -13 -28 -13
-23 0 -28 -1 -54 -15 -33 -18 -149 -66 -175 -72 -36 -8 -105 -37 -105 -43 0
-4 -11 -7 -25 -7 -14 0 -32 -6 -41 -14 -9 -7 -25 -14 -36 -16 -11 -2 -29 -8
-41 -15 -12 -7 -29 -13 -37 -14 -18 -4 -137 -51 -171 -70 -14 -7 -29 -11 -32
-8 -3 3 -18 -1 -34 -10 -42 -24 -133 -57 -133 -48 0 4 -4 1 -9 -7 -13 -20 -41
-22 -64 -6 -11 8 -67 58 -126 113 -134 126 -152 143 -241 222 -39 36 -85 76
-100 90 -118 107 -119 108 -200 145 -30 14 -68 32 -83 40 -16 8 -41 15 -56 15
-15 0 -32 5 -38 11 -7 7 -29 13 -50 15 -21 1 -48 5 -60 8 -90 20 -260 27 -345
14 -27 -4 -78 -9 -115 -13 -69 -5 -116 -12 -143 -20 -8 -3 -33 -7 -55 -11 -62
-10 -116 -24 -193 -51 l-42 -15 38 -26 c86 -59 195 -139 225 -164 18 -15 38
-28 45 -28 6 0 12 -3 12 -7 0 -5 16 -19 35 -32 19 -13 35 -31 35 -40 0 -20
-81 -258 -99 -289 -10 -20 -18 -22 -44 -17 -18 4 -39 14 -48 22 -9 7 -20 13
-25 12 -5 -1 -22 4 -39 11 -16 7 -32 14 -35 14 -7 2 -71 26 -100 39 -14 5 -32
12 -40 13 -18 4 -87 32 -122 51 -16 8 -28 11 -28 7 0 -3 -11 1 -25 10 -13 9
-29 16 -36 16 -6 0 -25 6 -42 14 -52 22 -111 44 -134 51 -13 4 -23 10 -23 13
0 4 -12 9 -27 10 -15 1 -29 6 -32 11 -3 4 -19 11 -36 15 -16 4 -52 18 -81 32
-28 13 -57 24 -65 24 -8 0 -19 4 -25 8 -5 5 -31 17 -59 27 -27 9 -63 23 -80
30 -16 7 -50 20 -75 30 -25 9 -57 24 -72 32 -16 8 -28 12 -28 8 0 -3 -15 2
-32 12 -18 9 -37 18 -43 19 -5 1 -23 8 -40 15 -16 7 -32 13 -35 13 -6 1 -66
24 -95 36 -11 5 -41 18 -67 29 -27 11 -48 18 -48 15 0 -2 -15 3 -32 13 -18 9
-40 18 -48 19 -8 2 -23 7 -35 12 -69 31 -97 42 -111 42 -9 0 -22 7 -30 15 -9
8 -26 15 -38 15 -13 0 -29 7 -36 15 -7 8 -22 15 -34 15 -12 0 -27 5 -32 10 -6
6 -48 13 -95 16 -46 3 -102 7 -124 9 -67 6 -328 15 -562 20 -226 4 -350 12
-367 22 -5 4 -6 1 -2 -5 5 -9 1 -9 -16 -3 -13 5 -73 9 -133 10 -183 3 -454 10
-555 16 -52 3 -136 7 -187 9 -51 2 -97 7 -103 11 -5 3 -10 1 -10 -5 0 -6 -4
-9 -9 -6 -5 4 -103 9 -218 12 -114 3 -230 7 -258 10 -88 7 -499 19 -547 15
-19 -1 -26 -21 -8 -21 6 0 65 -37 131 -82 66 -46 132 -90 146 -98 15 -8 35
-23 45 -32 10 -10 22 -18 26 -18 5 0 17 -8 28 -17 29 -27 192 -133 204 -133 5
0 10 -4 10 -8 0 -4 37 -32 82 -62 44 -30 91 -62 103 -70 13 -8 44 -30 69 -47
26 -18 50 -33 54 -33 4 0 22 -14 41 -30 18 -17 40 -30 47 -30 23 0 47 -46 35
-67 -5 -10 -17 -36 -26 -58 -9 -22 -27 -61 -40 -87 -21 -40 -22 -48 -10 -58 8
-7 15 -9 15 -6 0 4 10 0 22 -8 12 -9 32 -16 43 -16 12 0 26 -5 32 -11 6 -6 19
-12 29 -14 11 -2 19 -4 19 -5 0 -1 11 -4 25 -6 13 -3 29 -9 34 -14 6 -6 19
-10 31 -10 12 0 25 -4 31 -9 5 -4 59 -25 119 -46 61 -21 116 -43 123 -48 6 -5
12 -7 12 -3 0 4 18 -3 41 -14 23 -12 43 -19 46 -16 3 3 18 -1 32 -8 30 -16 96
-42 129 -51 12 -4 22 -11 22 -16 0 -5 10 -9 23 -9 13 0 42 -9 65 -20 22 -11
46 -20 52 -20 16 0 104 -42 113 -54 10 -14 5 -35 -27 -120 -31 -82 -32 -96 -8
-96 10 0 22 -3 26 -7 7 -7 22 -10 109 -17 32 -3 63 -9 70 -13 7 -4 29 -9 49
-10 21 -1 52 -6 70 -12 18 -5 60 -13 93 -17 33 -3 68 -10 78 -16 10 -5 43 -11
75 -13 31 -3 73 -9 92 -15 19 -5 50 -10 68 -10 18 0 41 -4 50 -9 16 -9 56 -16
135 -26 20 -2 45 -8 55 -13 9 -5 44 -12 77 -15 33 -3 71 -9 85 -12 14 -3 42
-8 63 -10 22 -3 62 -12 89 -20 28 -8 54 -13 57 -10 6 3 26 -1 106 -21 11 -2
41 -6 66 -8 25 -1 51 -6 57 -10 5 -3 34 -8 64 -11 29 -3 61 -8 72 -11 13 -4
17 -2 14 7 -3 8 -9 14 -14 14 -13 1 -76 35 -96 53 -10 8 -18 13 -18 9 0 -3
-19 5 -42 18 -24 13 -59 31 -78 40 -19 9 -42 21 -50 25 -8 5 -35 19 -60 31
-25 12 -54 26 -65 32 -11 6 -32 17 -46 24 -70 35 -64 82 16 118 29 14 61 25
70 25 9 0 13 5 10 11 -8 12 -55 33 -71 30 -6 0 -17 6 -24 14 -7 8 -19 15 -27
15 -8 0 -27 6 -41 14 -45 24 -126 60 -140 62 -7 1 -24 9 -37 18 -13 8 -35 17
-50 20 -15 3 -33 10 -41 17 -8 6 -14 9 -14 5 0 -3 -15 3 -32 14 -18 11 -40 20
-50 20 -9 0 -18 4 -20 8 -1 4 -47 25 -101 46 -53 21 -97 42 -97 47 0 5 -8 9
-18 9 -20 0 -52 29 -52 47 0 5 9 18 20 28 11 10 20 15 20 10 0 -4 7 -1 17 6 9
8 17 12 17 10 2 -6 90 20 126 37 32 15 33 17 12 20 -13 2 -46 17 -73 33 -27
15 -49 26 -49 24 0 -2 -24 9 -53 26 -28 18 -56 32 -62 33 -9 2 -39 16 -90 43
-11 6 -33 17 -50 24 -16 8 -61 31 -100 52 -38 21 -92 48 -120 60 -27 11 -52
23 -55 26 -7 8 -548 277 -582 290 -16 6 -28 18 -28 27 0 15 13 16 115 11 63
-3 119 -8 123 -11 10 -6 95 -14 225 -21 49 -3 93 -7 98 -11 5 -3 44 -8 87 -10
85 -6 124 -10 162 -18 14 -3 62 -7 107 -10 45 -3 104 -11 130 -17 27 -6 79
-13 117 -16 38 -2 77 -8 86 -13 9 -5 36 -11 59 -14 24 -3 48 -9 54 -14 7 -5
19 -10 27 -10 19 -1 51 -8 93 -21 18 -6 68 -22 112 -36 44 -14 87 -27 95 -30
33 -10 105 -37 114 -43 6 -3 16 -7 21 -8 6 -1 48 -20 95 -41 47 -22 90 -41 95
-42 6 -1 17 -8 25 -15 8 -7 33 -21 55 -31 22 -10 44 -24 48 -31 4 -8 15 -14
23 -14 8 0 38 -17 67 -38 29 -20 64 -44 79 -51 15 -8 37 -23 48 -33 11 -10 20
-16 20 -12 0 4 8 1 18 -7 9 -8 29 -21 45 -29 15 -7 27 -17 27 -22 0 -4 5 -8
11 -8 7 0 35 -15 63 -33 119 -79 222 -144 236 -150 15 -7 256 -160 275 -174
33 -26 95 -62 95 -56 0 5 4 3 8 -3 4 -6 45 -35 92 -64 110 -69 194 -124 200
-131 3 -3 12 -8 20 -12 8 -4 45 -26 82 -49 153 -98 286 -178 297 -178 6 0 11
-4 11 -8 0 -5 15 -16 33 -26 65 -35 140 -80 223 -134 10 -6 26 -15 34 -19 8
-4 17 -10 20 -13 3 -4 32 -22 65 -41 33 -18 62 -35 65 -39 10 -11 161 -100
170 -100 6 0 10 -4 10 -9 0 -5 14 -14 31 -21 17 -7 38 -20 46 -28 13 -14 20
-13 61 9 26 13 55 32 66 41 11 10 29 21 39 24 11 4 25 11 31 16 13 11 139 91
276 175 52 32 97 61 98 66 2 4 8 7 13 7 5 0 40 19 77 43 102 66 127 81 130 79
1 -1 15 9 30 23 15 14 31 25 37 25 5 0 35 17 67 38 82 54 198 126 238 148 19
10 39 25 43 32 4 6 12 12 17 12 4 0 61 34 127 75 65 41 145 91 178 110 33 20
94 58 135 85 41 27 82 53 90 57 8 3 44 25 80 48 36 23 110 70 165 103 55 34
106 66 112 72 7 6 21 14 30 18 18 7 96 57 180 114 23 15 44 28 48 28 3 0 33
18 65 40 32 22 62 40 66 40 3 0 26 14 51 30 24 17 51 30 59 30 8 0 17 6 20 13
3 8 11 14 18 14 8 0 40 12 72 27 33 15 68 32 79 36 53 23 100 43 105 44 22 4
100 30 120 41 14 7 57 20 95 30 39 9 81 21 95 26 14 4 43 11 64 14 22 3 45 10
52 16 8 6 30 12 51 14 21 1 49 5 63 9 14 3 54 9 90 12 68 6 89 9 130 19 14 3
70 8 125 11 55 2 107 7 115 11 8 3 23 7 33 8 9 2 18 3 20 4 1 2 45 4 98 6 53
2 109 7 125 10 16 3 67 7 114 10 85 6 137 11 240 24 49 6 86 7 128 2 28 -3 7
-20 -80 -66 -51 -26 -95 -48 -98 -48 -9 0 -35 -10 -40 -16 -4 -6 -56 -32 -70
-36 -8 -2 -193 -95 -210 -105 -40 -24 -376 -184 -382 -182 -5 1 -8 -2 -8 -8 0
-5 -9 -10 -19 -10 -10 0 -22 -7 -25 -16 -4 -9 -9 -14 -12 -11 -3 3 -33 -9 -67
-26 -34 -17 -65 -30 -69 -29 -3 1 -12 -5 -18 -13 -7 -8 -18 -15 -25 -15 -16 0
-79 -32 -83 -43 -2 -4 -8 -5 -13 -1 -5 3 -9 0 -9 -6 0 -6 -5 -8 -10 -5 -6 3
-13 -1 -17 -10 -7 -19 15 -37 34 -30 7 2 15 0 18 -4 3 -5 27 -14 53 -21 26 -6
61 -20 77 -30 l29 -19 -43 -40 c-24 -22 -46 -40 -50 -39 -6 1 -43 -12 -86 -31
-81 -36 -195 -81 -204 -81 -6 0 -11 -4 -11 -10 0 -5 -11 -10 -24 -10 -14 0
-27 -4 -31 -9 -3 -5 -29 -17 -58 -27 -28 -9 -56 -20 -62 -24 -16 -12 -229
-102 -243 -103 -26 -1 -5 -20 46 -41 54 -22 92 -49 92 -65 0 -14 -45 -61 -59
-61 -6 0 -11 -4 -11 -10 0 -5 -6 -10 -13 -10 -7 0 -29 -9 -50 -20 -20 -11 -37
-17 -37 -14 0 4 -7 1 -15 -6 -8 -7 -49 -29 -90 -50 -41 -21 -82 -43 -90 -50
-8 -7 -15 -10 -15 -6 0 3 -21 -7 -47 -22 -27 -15 -67 -36 -90 -47 -24 -11 -43
-23 -43 -27 0 -10 -2 -10 40 3 52 15 70 19 129 25 30 3 62 9 70 13 9 4 36 9
60 10 24 2 56 7 70 13 14 5 50 11 79 13 29 2 67 8 85 14 18 5 52 13 77 16 51
6 133 21 200 36 25 5 71 12 102 14 32 3 70 10 85 16 15 6 48 12 73 15 25 2 65
8 90 14 25 5 64 11 88 14 24 3 47 8 52 11 5 3 36 8 70 11 33 3 73 10 88 16 15
5 46 12 68 13 37 3 59 7 124 22 8 2 35 6 60 8 25 2 48 4 53 4 14 2 7 48 -18
111 -34 86 -33 118 3 131 15 5 34 12 42 16 8 3 21 7 29 9 8 1 28 9 45 18 34
16 58 24 67 22 3 0 13 5 22 12 9 8 21 11 27 7 5 -3 10 -2 10 4 0 5 15 13 33
16 17 4 37 11 42 15 14 10 118 45 128 42 4 -1 7 2 7 7 0 5 17 13 38 19 20 6
57 18 82 27 71 25 75 26 80 27 3 0 25 8 50 18 25 10 47 18 50 18 6 0 40 13 85
33 17 7 39 14 50 15 54 8 179 64 157 72 -6 2 -12 10 -12 18 0 8 -4 14 -8 14
-5 0 -9 6 -9 13 0 11 -43 112 -63 148 -7 13 3 25 48 58 31 22 63 46 70 51 6 6
12 8 12 5 0 -3 10 3 22 15 12 11 28 20 35 20 7 0 13 4 13 10 0 5 17 19 38 30
32 18 86 53 117 77 6 5 53 36 105 71 52 34 106 71 120 82 14 11 30 20 37 20 6
0 13 4 15 8 4 11 97 72 109 72 5 0 9 3 9 8 0 4 23 20 50 35 28 16 50 32 50 37
0 4 12 12 28 18 15 5 37 19 49 31 12 12 26 21 31 21 5 0 15 6 21 14 7 8 28 22
47 31 20 9 34 18 32 20 -5 5 -127 12 -132 8z"/>
<path d="M14668 11164 c6 -3 12 -14 12 -25 0 -10 6 -19 13 -19 6 0 26 -32 42
-70 17 -38 33 -70 36 -70 5 0 15 23 52 113 7 15 14 27 18 27 3 0 5 -29 5 -65
-1 -36 -5 -65 -9 -65 -5 0 -6 -4 -3 -9 3 -4 17 -6 31 -3 19 3 23 8 16 15 -15
15 -14 150 2 166 10 10 7 12 -13 9 -20 -2 -32 -17 -59 -75 l-35 -72 -32 72
c-28 64 -35 72 -60 74 -16 1 -23 0 -16 -3z"/>
<path d="M14680 11051 c0 -38 -4 -61 -12 -64 -7 -3 0 -6 16 -6 21 -1 26 2 18
12 -5 6 -9 36 -8 65 0 28 -2 52 -6 52 -5 0 -8 -27 -8 -59z"/>
<path d="M7081 9322 c-6 -10 -12 -30 -15 -43 -2 -13 -9 -37 -16 -54 -7 -16
-14 -41 -17 -55 -2 -14 -8 -29 -14 -34 -5 -6 -9 -18 -9 -29 0 -10 -11 -51 -24
-90 -13 -40 -31 -99 -41 -132 -10 -33 -21 -69 -26 -80 -7 -19 -39 -130 -43
-150 -1 -5 -8 -21 -15 -33 -7 -13 -10 -26 -7 -29 3 -3 -1 -18 -9 -33 -8 -15
-17 -43 -20 -61 -3 -19 -10 -38 -16 -44 -5 -5 -9 -23 -9 -41 0 -18 -5 -34 -11
-36 -5 -2 -12 -19 -15 -38 -4 -19 -10 -42 -15 -51 -4 -9 -10 -27 -13 -40 -2
-13 -16 -57 -29 -96 -14 -40 -23 -73 -21 -73 2 0 -5 -22 -16 -50 -11 -27 -18
-50 -16 -50 2 0 -8 -35 -24 -77 -15 -43 -28 -81 -28 -86 -1 -11 -41 -145 -58
-193 -8 -23 -16 -50 -18 -60 -2 -11 -20 -68 -40 -129 -20 -60 -39 -123 -42
-140 -3 -16 -10 -35 -15 -41 -6 -8 -6 -14 0 -18 5 -3 21 7 34 24 14 16 28 30
31 30 3 0 61 54 128 119 68 65 148 143 179 172 63 60 379 363 497 477 42 39
77 72 79 72 3 0 59 54 126 119 67 65 158 153 202 194 44 42 121 116 170 164
50 48 106 101 124 116 l34 28 -21 19 c-12 11 -24 20 -27 20 -3 0 -30 15 -59
33 -82 50 -85 53 -186 113 -52 32 -98 62 -102 68 -4 6 -8 7 -8 3 0 -4 -15 3
-32 16 -18 13 -55 36 -83 52 -27 16 -52 31 -55 34 -3 4 -16 12 -30 19 -14 6
-32 16 -40 22 -12 8 -231 143 -297 183 -7 5 -16 0 -22 -11z"/>
<path d="M9536 9315 c-3 -8 -9 -14 -13 -13 -4 1 -27 -10 -50 -25 -24 -15 -47
-27 -52 -27 -5 0 -11 -4 -13 -9 -1 -5 -50 -37 -108 -72 -58 -35 -107 -67 -110
-70 -3 -3 -15 -9 -27 -13 -13 -4 -23 -12 -23 -17 0 -5 -5 -9 -11 -9 -6 0 -25
-11 -43 -25 -18 -14 -36 -25 -39 -25 -4 0 -28 -15 -54 -34 -27 -18 -63 -42
-82 -52 -39 -22 -47 -27 -124 -77 -31 -20 -59 -37 -61 -37 -2 0 -26 -15 -53
-32 -30 -20 -48 -38 -45 -47 2 -8 27 -35 55 -60 79 -73 195 -181 257 -241 32
-30 97 -91 145 -135 77 -70 187 -172 307 -285 20 -19 78 -73 129 -120 51 -47
109 -101 129 -120 20 -19 60 -57 89 -83 28 -26 51 -51 51 -55 0 -4 20 -21 43
-39 23 -18 80 -68 126 -113 47 -44 86 -80 87 -80 1 0 42 -38 91 -85 48 -47 91
-85 95 -85 7 0 1 32 -11 65 -19 48 -33 91 -37 110 -2 11 -15 54 -30 95 -14 41
-27 80 -28 85 -2 6 -8 23 -14 38 -7 16 -12 35 -12 43 0 8 -4 22 -9 32 -9 16
-83 248 -82 254 1 2 -14 47 -33 101 -19 53 -33 97 -30 97 3 0 0 9 -6 21 -6 11
-13 28 -15 38 -2 9 -14 51 -28 92 -14 41 -48 148 -77 239 -29 91 -58 181 -66
200 -7 19 -25 76 -40 125 -15 50 -43 135 -61 190 -19 55 -36 113 -39 130 -2
16 -9 34 -14 39 -6 6 -10 18 -10 28 0 24 -28 78 -39 78 -5 0 -11 -7 -15 -15z"/>
<path d="M6025 9250 c4 -6 11 -8 16 -5 14 9 11 15 -7 15 -8 0 -12 -5 -9 -10z"/>
<path d="M2300 7092 c-7 -3 -10 -341 -10 -988 l0 -984 6095 0 6095 0 -2 987
-3 986 -6083 1 c-3345 1 -6087 0 -6092 -2z"/>
<path d="M16633 9325 c0 -8 4 -12 9 -9 5 3 6 10 3 15 -9 13 -12 11 -12 -6z"/>
<path d="M16633 9241 c0 -11 5 -18 9 -15 4 3 5 11 1 19 -7 21 -12 19 -10 -4z"/>
<path d="M16630 9180 c0 -5 5 -10 11 -10 5 0 7 5 4 10 -3 6 -8 10 -11 10 -2 0
-4 -4 -4 -10z"/>
<path d="M16630 9150 c0 -5 5 -10 11 -10 5 0 7 5 4 10 -3 6 -8 10 -11 10 -2 0
-4 -4 -4 -10z"/>
<path d="M16630 9114 c0 -8 5 -12 10 -9 6 4 8 11 5 16 -9 14 -15 11 -15 -7z"/>
<path d="M16630 9075 c0 -8 4 -15 8 -15 5 0 9 7 9 15 0 8 -4 15 -9 15 -4 0 -8
-7 -8 -15z"/>
<path d="M16630 9025 c0 -14 4 -25 8 -25 4 0 8 11 8 25 0 14 -4 25 -8 25 -4 0
-8 -11 -8 -25z"/>
<path d="M16630 8974 c0 -8 5 -12 10 -9 6 4 8 11 5 16 -9 14 -15 11 -15 -7z"/>
<path d="M26 7660 c0 -33 3 -62 6 -65 3 -4 5 12 4 35 -1 22 1 43 5 46 4 2 5
13 2 24 -10 38 -18 20 -17 -40z"/>
<path d="M25 7555 c2 -26 11 -45 12 -22 0 6 2 18 4 26 2 7 -1 15 -6 17 -6 2
-10 -7 -10 -21z"/>
<path d="M29 7503 c-5 -36 -5 -62 -1 -58 7 7 12 65 6 65 -2 0 -4 -3 -5 -7z"/>
<path d="M32 7390 c0 -14 2 -19 5 -12 2 6 2 18 0 25 -3 6 -5 1 -5 -13z"/>
<path d="M25 7311 c-3 -5 -2 -12 3 -15 5 -3 9 1 9 9 0 17 -3 19 -12 6z"/>
</g>
</svg>
